
        <svg xmlns="http://www.w3.org/2000/svg" xmlns:xlink="http://www.w3.org/1999/xlink" version="1.1" width="3176.673427307752" 
        height="743.8680254597404" viewBox="0 0 3176.673427307752 743.8680254597404">
			
			<g transform="scale(8.833671365387579) translate(10, 10)">
				<defs id="SvgjsDefs4559"><linearGradient id="SvgjsLinearGradient4566"><stop id="SvgjsStop4567" stop-color="#ef4136" offset="0"></stop><stop id="SvgjsStop4568" stop-color="#fbb040" offset="1"></stop></linearGradient></defs><g id="SvgjsG4560" featureKey="nRdZyp-0" transform="matrix(0.6384465923810811,0,0,0.6384465923810811,6.999840476029202,0.18179773354735568)" fill="url(#SvgjsLinearGradient4566)"><path xmlns="http://www.w3.org/2000/svg" d="M78.078,53.341L50,71.975L21.417,53.51L1.771,65.483c-2.361,1.454-2.361,1.433,0,3.035L47.723,99.21  c2.277,1.433,2.277,1.433,4.553,0l45.953-30.691c2.361-1.602,2.361-1.602,0-3.035L78.078,53.341z M52.277,0.79  C50-0.643,50-0.643,47.723,0.79L1.771,31.482c-2.361,1.433-2.361,1.581,0,3.035l45.953,30.691c2.277,1.433,2.277,1.433,4.553,0  l45.953-30.691c2.298-1.518,2.277-1.518,0-3.035L52.277,0.79z"></path></g><g id="SvgjsG4561" featureKey="nameLeftFeature-0" transform="matrix(2.3326400435782912,0,0,2.3326400435782912,81.41944002914208,0.9760249964985821)" fill="#000000"><path d="M8.0676 18.3222 c0.10169 0.11864 0.10153 0.20373 0.016784 0.30525 c-0.77966 0.83051 -1.8305 1.4912 -3.1017 1.4912 c-2.3559 0 -4.3051 -1.8642 -4.3051 -4.3049 s1.9492 -4.322 4.3051 -4.322 c1.2712 0 2.3051 0.59322 2.9661 1.339 c0.10169 0.11864 0.10169 0.22034 0.016949 0.32203 l-0.45763 0.54237 c-0.084746 0.084746 -0.15254 0.10169 -0.30508 -0.033898 c-0.49136 -0.54237 -1.2202 -0.9661 -2.1524 -0.9661 c-2.1017 0 -3.1356 1.6441 -3.1356 3.1186 c0 1.4407 1.0339 3.1017 3.1525 3.1017 c0.93254 0 1.6273 -0.45763 2.2544 -1.1356 c0.13559 -0.11864 0.22017 -0.084912 0.32203 0.016949 z M13.626920338983052 20.10153 c2.3559 0 4.322 -1.8812 4.322 -4.288 c0 -2.4576 -1.9661 -4.339 -4.322 -4.339 c-2.3898 0 -4.3559 1.8814 -4.3559 4.339 c0 2.4068 1.9661 4.288 4.3559 4.288 z M13.626920338983052 18.8985 c-1.7797 0 -3.1017 -1.4576 -3.1017 -3.0847 c0 -1.661 1.322 -3.1186 3.1017 -3.1186 c1.7458 0 3.0678 1.4576 3.0678 3.1186 c0 1.6271 -1.322 3.0847 -3.0678 3.0847 z M26.7795186440678 6.441000000000001 c0.27119 0 0.44068 0.16949 0.44068 0.4239 l0 12.932 c0 0.11864 -0.084746 0.20322 -0.18661 0.20322 l-0.47441 0 c-0.28814 0 -0.61017 -0.18644 -0.61017 -0.52542 l0 -0.27119 c-0.69492 0.52559 -1.6441 0.91508 -2.678 0.91508 c-2.4068 0 -3.9661 -1.949 -3.9661 -4.3727 c0 -2.5593 1.9661 -4.2034 3.9661 -4.2034 c1.2203 0 2.0508 0.39 2.678 0.81356 l0 -4.678 c0 -0.42373 -0.067797 -0.67814 -0.10169 -0.9661 c-0.016949 -0.15254 0.033898 -0.27119 0.15254 -0.27119 l0.77966 0 z M23.4744186440678 18.9324 c1.0339 0 1.8305 -0.38983 2.4746 -0.83051 l0 -4.5254 c-0.71186 -0.49153 -1.5254 -0.83051 -2.4746 -0.83051 c-1.339 0 -2.8983 0.9322 -2.8983 3 c0 1.8983 1.2373 3.1864 2.8983 3.1864 z M36.33878813559323 16.3731 c0.47458 0 0.81356 -0.18661 0.81356 -0.79678 c0 -2.1695 -1.678 -4.0847 -4.1017 -4.0847 c-2.3559 0 -4.1695 1.8814 -4.1695 4.3051 c0 2.5085 1.9153 4.3047 4.2881 4.3047 c1.4915 0 2.661 -0.71153 3.4237 -1.6946 c0.084746 -0.11864 0.067797 -0.20339 -0.033898 -0.30508 l-0.22034 -0.28814 c-0.10153 -0.13559 -0.22034 -0.11864 -0.33898 -0.016784 c-0.64407 0.64407 -1.5763 1.1525 -2.7119 1.1525 c-1.8136 0 -2.8983 -1.2712 -3.0507 -2.5763 l6.1015 0 z M30.220188135593226 15.339 c0.033898 -1.1356 0.9322 -2.661 2.8136 -2.661 s2.7458 1.5763 2.7966 2.661 l-5.6102 0 z"></path></g><g id="SvgjsG4562" featureKey="nameRightFeature-0" transform="matrix(2.3194778227296466,0,0,2.3194778227296466,173.42785751766252,1.2582330165668285)" fill="#000000"><path d="M5.0168 20.11864 c2.3729 0 4.339 -1.8642 4.339 -4.3049 c0 -2.4746 -1.9661 -4.322 -4.339 -4.322 s-4.339 1.8475 -4.339 4.322 c0 2.4407 1.9661 4.3049 4.339 4.3049 z M5.0168 17.9493 c-1.2034 0 -2.0847 -0.98305 -2.0847 -2.1186 c0 -1.1695 0.88136 -2.1525 2.0847 -2.1525 s2.0847 0.98305 2.0847 2.1525 c0 1.1356 -0.88136 2.1186 -2.0847 2.1186 z M18.35591525423729 11.6102 l-1.8646 0 c-0.18644 0 -0.25424 0.11881 -0.32203 0.3222 l-1.7625 4.1524 l-1.7797 -4.1524 c-0.067797 -0.20339 -0.13559 -0.3222 -0.32203 -0.3222 l-1.9322 0 c-0.18644 0 -0.30508 0.11881 -0.20356 0.3222 l3.7966 7.9153 c0.067797 0.11864 0.23746 0.23712 0.3561 0.23712 l0.16949 0 c0.11864 0 0.28814 -0.11848 0.35593 -0.23712 l3.7797 -7.9153 c0.10169 -0.18661 -0.084746 -0.3222 -0.27119 -0.3222 z M26.30511694915254 16.5934 c0.74576 0 1.2375 -0.40695 1.2375 -1.2205 c0 -1.9831 -1.5593 -3.8814 -4.0678 -3.8814 c-2.3729 0 -4.2203 1.8475 -4.2203 4.3051 c0 2.5763 1.949 4.288 4.3219 4.288 c1.5085 0 2.7119 -0.52542 3.4068 -1.5085 c0.11864 -0.15254 0.084746 -0.27119 -0.050847 -0.44068 l-0.38983 -0.5422 c-0.16949 -0.22034 -0.32203 -0.18644 -0.52542 -0.084746 c-0.45763 0.25424 -1.339 0.52542 -2.1695 0.52542 c-1.0169 0 -1.9322 -0.49153 -2.1356 -1.4405 l4.5932 0 z M21.728816949152538 14.7966 c0.084746 -0.54237 0.72881 -1.1695 1.6949 -1.1695 c0.98305 0 1.5932 0.61017 1.678 1.1695 l-3.3729 0 z M35.389642372881355 11.9663 c0.22034 0.15254 0.30525 0.27119 0.13592 0.50847 l-0.88136 1.2881 c-0.10169 0.15254 -0.23729 0.20339 -0.44068 0.15254 c-0.23729 -0.084746 -0.47458 -0.20339 -0.98322 -0.20339 c-0.50847 0 -1.4576 0.22034 -1.7119 1.322 l0 4.6441 c0 0.16949 -0.13559 0.32186 -0.32203 0.32186 l-1.7119 0 c-0.16949 0 -0.30508 -0.15238 -0.30508 -0.32186 l0 -7.7456 c0 -0.16949 0.13559 -0.32203 0.30508 -0.32203 l1.1695 0 c0.45763 0 0.76271 0.40678 0.84729 0.76271 c0.50864 -0.44068 1.1697 -0.83068 2.1356 -0.83068 c0.86441 0 1.4746 0.22034 1.7627 0.42373 z M43.72864406779661 6.898 c0.13559 0.084746 0.1861 0.27136 0.11831 0.4239 l-0.59322 1.3559 c-0.08458 0.18661 -0.25407 0.23746 -0.44051 0.16966 c-0.22034 -0.067797 -0.66102 -0.28814 -1.2203 -0.28814 c-0.5422 0 -1.2541 0.35593 -1.2541 1.1864 l0 1.8644 l1.6441 0 c0.13559 0 0.25424 0.10169 0.25424 0.25424 l0 1.6778 c0 0.13559 -0.11864 0.23729 -0.25424 0.23729 l-1.6441 0 l0 5.8814 c0 0.20339 -0.15254 0.33881 -0.32203 0.33881 l-1.2034 0 c-0.52542 0 -0.81356 -0.37288 -0.81356 -0.86441 l0 -5.3559 l-1.0339 0 c-0.15254 0 -0.25424 -0.084746 -0.25424 -0.22034 l0 -1.339 c0 -0.38983 0.25424 -0.61017 0.62712 -0.61017 l0.66102 0 l0 -1.8644 c0 -2.288 1.5254 -3.3898 3.5424 -3.3898 c0.84746 0 1.6271 0.22034 2.1864 0.54237 z M46.89816949152542 6.441000000000001 l-1.6949 -0.00016552 c-0.18661 0 -0.3222 0.15254 -0.3222 0.32203 l0 12.373 c0 0.49153 0.30525 0.86441 0.83068 0.86441 l1.1864 0 c0.18644 0 0.32203 -0.13543 0.32203 -0.33881 l0 -12.898 c0 -0.16949 -0.15254 -0.32203 -0.32203 -0.32203 z M53.423579661016944 20.11864 c2.3729 0 4.339 -1.8642 4.339 -4.3049 c0 -2.4746 -1.9661 -4.322 -4.339 -4.322 s-4.339 1.8475 -4.339 4.322 c0 2.4407 1.9661 4.3049 4.339 4.3049 z M53.423579661016944 17.9493 c-1.2034 0 -2.0847 -0.98305 -2.0847 -2.1186 c0 -1.1695 0.88136 -2.1525 2.0847 -2.1525 s2.0847 0.98305 2.0847 2.1525 c0 1.1356 -0.88136 2.1186 -2.0847 2.1186 z M71.35569491525423 11.6102 c0.23729 0 0.35559 0.15254 0.2539 0.38966 l-3.2712 7.7798 c-0.033898 0.11864 -0.16949 0.22017 -0.30492 0.22017 l-0.23729 0 c-0.15254 0 -0.28814 -0.10153 -0.35593 -0.22017 l-2.3388 -4.4068 l-2.3559 4.4068 c-0.067797 0.11864 -0.20339 0.22017 -0.35593 0.22017 l-0.23729 0 c-0.15254 0 -0.27119 -0.10153 -0.32203 -0.22017 l-3.2542 -7.7798 c-0.10153 -0.23712 0.017115 -0.38966 0.25441 -0.38966 l1.7627 0 c0.16949 0 0.32203 0.10169 0.38983 0.23729 l1.6271 4.2712 l1.9492 -4.2034 c0.067797 -0.13559 0.20339 -0.22034 0.38983 -0.22034 l0.28797 0 c0.20339 0 0.3222 0.084746 0.37305 0.22034 l1.9659 4.2034 l1.6271 -4.2712 c0.067797 -0.13559 0.20339 -0.23729 0.37271 -0.23729 l1.7798 0 z"></path></g>
			</g>
		</svg>
	